<svg width="31" height="31" viewBox="0 0 31 31" fill="none" xmlns="http://www.w3.org/2000/svg">
<path d="M27.5367 0.740072C22.5091 0.758176 15.7805 4.23058 11.2734 10.175L7.51853 10.1886C4.80666 10.1983 3.25995 12.2292 2.1965 14.3732L0.770024 17.2452L7.54386 17.2208L11.0723 20.7242L14.6008 24.2276L14.6252 30.9997L17.4866 29.5548C19.6228 28.4782 21.6423 26.9144 21.6325 24.2023L21.619 20.4471C27.5304 15.897 30.9539 9.14074 30.9358 4.11506L30.9236 0.727876L27.5367 0.740072ZM21.5734 7.79384C22.1951 7.79161 22.7921 8.03642 23.2333 8.47444C23.6744 8.91245 23.9235 9.50779 23.9257 10.1295C23.928 10.7512 23.6832 11.3483 23.2452 11.7895C22.8072 12.2306 22.2119 12.4797 21.5903 12.482C20.9687 12.4842 20.3716 12.2394 19.9304 11.8014C19.4893 11.3634 19.2402 10.768 19.238 10.1464C19.2357 9.52467 19.4805 8.92756 19.9185 8.48637C20.3565 8.04519 20.9518 7.79608 21.5734 7.79384ZM6.3888 21.9131L5.22107 23.0894C3.53488 24.7879 2.89829 28.958 2.89829 28.958C2.89829 28.958 6.87654 28.4795 8.74956 26.5928L9.91729 25.4166L6.3888 21.9131Z" fill="#0182DD"/>
</svg>
